<svg width="512" height="512" viewBox="0 0 512 512" fill="none" xmlns="http://www.w3.org/2000/svg">
<g clip-path="url(#clip0)">
<path d="M486.398 341.332H403.727L475.285 300.012C481.184 296.637 485.496 291.055 487.27 284.492C489.047 277.93 488.137 270.934 484.742 265.047L424.992 161.586C421.59 155.703 415.984 151.414 409.418 149.668C402.852 147.887 395.844 148.824 389.977 152.266L318.402 193.598L359.711 122.059C363.141 116.176 364.082 109.168 362.332 102.586C360.582 96.0039 356.277 90.3906 350.379 86.9922L246.934 27.2422C241.047 23.8594 234.059 22.957 227.508 24.7305C220.957 26.5039 215.379 30.8047 212 36.6914L170.668 108.289V25.6016C170.652 11.4688 159.199 0.015625 145.066 0H25.6016C11.4688 0.015625 0.015625 11.4688 0 25.6016V486.398C0.015625 500.531 11.4688 511.984 25.6016 512H486.398C500.531 511.984 511.984 500.531 512 486.398V366.934C511.984 352.801 500.531 341.348 486.398 341.332ZM25.6016 341.332C22.6875 341.363 19.8008 341.895 17.0664 342.906V256H85.3828L36.1172 341.332H25.6016ZM369.594 341.332H252.902L213.809 273.703L302.477 222.504L370.711 340.691L369.594 341.332ZM288.832 210.672L187.809 269.012L120.137 229.938L171.316 141.293L289.496 209.523L288.832 210.672ZM153.602 137.844L101.164 228.672C101.137 228.715 101.094 228.734 101.066 228.781L101.02 228.918L95.2383 238.934H17.0664V136.535H153.602V137.844ZM111.605 244.719L170.742 278.867L62.5664 341.332H55.8242L111.605 244.719ZM191.965 286.32L192.074 286.258L199.031 282.238L233.191 341.332H96.6992L191.965 286.32ZM153.602 358.398H256V494.934H153.602V358.398ZM273.066 358.398H375.465V494.934H273.066V358.398ZM398.543 167.027C400.488 165.879 402.82 165.562 405.004 166.148C407.207 166.742 409.086 168.18 410.234 170.152L469.949 273.559C471.086 275.523 471.391 277.859 470.793 280.051C470.195 282.238 468.75 284.102 466.773 285.215L385.488 332.148L317.258 213.965L398.543 167.027ZM226.797 45.1992C227.914 43.2383 229.77 41.8008 231.953 41.207C234.133 40.6133 236.461 40.9102 238.422 42.0352L341.812 101.75C343.801 102.895 345.254 104.781 345.852 106.996C346.438 109.195 346.113 111.535 344.949 113.492L298.035 194.742L179.852 126.512L226.797 45.1992ZM25.6016 17.0664H145.066C149.777 17.0742 153.594 20.8906 153.602 25.6016V119.465H17.0664V25.6016C17.0742 20.8906 20.8906 17.0742 25.6016 17.0664ZM17.0664 486.398V366.934C17.0742 362.223 20.8906 358.406 25.6016 358.398H136.535V494.934H25.6016C20.8906 494.926 17.0742 491.109 17.0664 486.398ZM494.934 486.398C494.926 491.109 491.109 494.926 486.398 494.934H392.535V358.398H486.398C491.109 358.406 494.926 362.223 494.934 366.934V486.398Z" fill="#7CC246"/>
<path d="M85.332 392.535C66.4805 392.535 51.1992 407.816 51.1992 426.668C51.1992 445.52 66.4805 460.801 85.332 460.801C104.184 460.801 119.465 445.52 119.465 426.668C119.445 407.824 104.176 392.555 85.332 392.535ZM85.332 443.734C75.9062 443.734 68.2656 436.094 68.2656 426.668C68.2656 417.242 75.9062 409.602 85.332 409.602C94.7578 409.602 102.398 417.242 102.398 426.668C102.391 436.09 94.7539 443.723 85.332 443.734Z" fill="#7CC246"/>
</g>
<defs>
<clipPath id="clip0">
<rect width="512" height="512" fill="white"/>
</clipPath>
</defs>
</svg>
