<svg width="512" height="512" viewBox="0 0 512 512" fill="none" xmlns="http://www.w3.org/2000/svg">
<path d="M501.801 177.104H233.151V11.738C233.151 5.25614 228.584 0 222.952 0H10.199C4.567 0 0 5.25614 0 11.738V500.262C0 506.744 4.567 512 10.199 512H501.801C507.433 512 512 506.744 512 500.262V188.842C512 182.361 507.433 177.104 501.801 177.104ZM212.752 488.523H20.398V23.476H212.752V488.523ZM442.111 488.523H282.64V460.888H384.064C389.696 460.888 394.263 455.631 394.263 449.15C394.263 442.668 389.696 437.412 384.064 437.412H282.64V411.561H442.111V488.523ZM442.111 388.084H282.64V362.233H442.111V388.084ZM282.64 338.756V311.122H442.111V338.756H282.64ZM491.602 488.523H462.51V299.384C462.51 292.902 457.943 287.646 452.311 287.646H272.441C266.809 287.646 262.242 292.902 262.242 299.384V488.523H233.151V200.58H491.602V488.523Z" fill="#7CC246"/>
<path d="M159.952 280.399H73.198C67.566 280.399 62.999 284.966 62.999 290.598V405.236C62.999 410.868 67.566 415.435 73.198 415.435H159.952C165.584 415.435 170.151 410.868 170.151 405.236V290.598C170.151 284.965 165.585 280.399 159.952 280.399ZM106.376 395.037H83.398V300.797H106.376V395.037ZM149.753 395.037H126.774V300.797H149.753V395.037Z" fill="#7CC246"/>
<path d="M159.952 96.565H73.198C67.566 96.565 62.999 101.132 62.999 106.764V221.402C62.999 227.034 67.566 231.601 73.198 231.601H159.952C165.584 231.601 170.151 227.034 170.151 221.402V106.764C170.151 101.131 165.585 96.565 159.952 96.565ZM106.376 211.203H83.398V116.963H106.376V211.203ZM149.753 211.203H126.774V116.963H149.753V211.203Z" fill="#7CC246"/>
<path d="M419.178 413.627H416.08C410.448 413.627 405.881 418.194 405.881 423.826C405.881 429.458 410.448 434.025 416.08 434.025H419.178C424.81 434.025 429.377 429.458 429.377 423.826C429.377 418.194 424.811 413.627 419.178 413.627Z" fill="#7CC246"/>
</svg>
