<svg width="512" height="512" viewBox="0 0 512 512" fill="none" xmlns="http://www.w3.org/2000/svg">
<g clip-path="url(#clip0)">
<path d="M486.403 298.674H460.802V213.345C460.775 189.791 441.689 170.705 418.135 170.678H281.609C258.055 170.705 238.969 189.791 238.942 213.345V298.674H213.341C199.213 298.69 187.76 310.142 187.744 324.275V409.604C187.811 432.06 205.295 450.606 227.708 451.997L215.439 494.933H135.684C131.602 475.086 114.145 460.829 93.8802 460.801H76.8144V67.9392C76.8261 41.2487 97.4583 19.1049 124.082 17.2143C150.707 15.3237 174.264 34.327 178.049 60.748L178.198 61.7832C167.186 66.3182 160.792 77.8803 162.808 89.6143L165.136 103.391L142.32 142.573C139.254 147.843 139.23 154.347 142.254 159.639C145.281 164.932 150.902 168.209 156.999 168.237C157.976 168.237 158.952 168.155 159.913 167.991L241.778 154.155C248.305 153.05 253.606 148.269 255.379 141.89C257.148 135.511 255.07 128.683 250.043 124.375L215.618 94.8641L213.29 81.0872C211.638 71.4821 204.662 63.6542 195.311 60.9082L194.943 58.334C189.901 23.0383 158.433 -2.35539 122.871 0.171876C87.3101 2.69914 59.7485 32.288 59.7485 67.9392V460.801H42.6827V452.27C42.6827 447.556 38.8625 443.736 34.1478 443.736C29.437 443.736 25.6168 447.556 25.6168 452.27V464.418C10.09 471.203 0.0473623 486.523 0.0161133 503.468C0.0161133 508.179 3.8363 511.999 8.55099 511.999H503.468C508.179 511.999 511.999 508.179 511.999 503.468C511.999 498.753 508.179 494.933 503.468 494.933H484.305L472.036 451.997C494.449 450.606 511.933 432.06 511.999 409.604V324.275C511.984 310.142 500.531 298.69 486.403 298.674V298.674ZM238.934 137.328L157.07 151.167L179.428 112.77L205.205 108.414L238.997 137.312L238.934 137.328ZM197.889 92.3408L181.061 95.1844L179.635 86.7706C178.858 82.1262 181.983 77.7279 186.627 76.935C187.1 76.8569 187.576 76.8178 188.057 76.8178C192.217 76.8256 195.768 79.8255 196.471 83.927L197.889 92.3408ZM281.609 187.744H418.135C432.268 187.76 443.72 199.212 443.736 213.345V300.248C433.537 303.838 426.701 313.459 426.67 324.275V341.559C419.327 335.915 410.331 332.837 401.069 332.806H370.473L390.039 313.24C393.269 309.892 393.226 304.568 389.933 301.279C386.64 297.986 381.32 297.94 377.973 301.174L358.407 320.74V281.608C358.407 276.893 354.583 273.073 349.872 273.073C345.161 273.073 341.337 276.893 341.337 281.608V320.74L321.771 301.174C318.424 297.94 313.104 297.986 309.811 301.279C306.518 304.568 306.475 309.892 309.705 313.24L329.271 332.806H298.674C289.413 332.837 280.417 335.915 273.074 341.559V324.275C273.042 313.459 266.207 303.838 256.008 300.248V213.345C256.023 199.212 267.476 187.76 281.609 187.744V187.744ZM401.069 349.871C415.202 349.887 426.655 361.34 426.67 375.472V384.003H273.074V375.472C273.089 361.34 284.542 349.887 298.674 349.871H401.069ZM413.186 452.27L437.568 494.933H262.179L286.558 452.27H413.186ZM426.67 435.201H273.074V401.069H426.67V435.201ZM204.81 409.604V324.275C204.814 319.564 208.634 315.748 213.341 315.74H247.477C252.184 315.748 256.004 319.564 256.008 324.275V435.201H230.411C216.279 435.185 204.826 423.736 204.81 409.604V409.604ZM18.5468 494.933C22.1716 484.715 31.8354 477.879 42.6827 477.867H93.8802C104.724 477.879 114.391 484.715 118.016 494.933H18.5468ZM233.188 494.933L245.379 452.27H266.906L242.528 494.933H233.188ZM457.216 494.933L432.838 452.27H454.365L466.556 494.933H457.216ZM494.934 409.604C494.918 423.736 483.465 435.185 469.333 435.201H443.736V324.275C443.74 319.564 447.56 315.748 452.267 315.74H486.403C491.11 315.748 494.926 319.564 494.934 324.275V409.604Z" fill="#7CC246"/>
</g>
<defs>
<clipPath id="clip0">
<rect width="512" height="512" fill="white"/>
</clipPath>
</defs>
</svg>
