<svg width="512" height="512" viewBox="0 0 512 512" fill="none" xmlns="http://www.w3.org/2000/svg">
<g clip-path="url(#clip0)">
<path d="M503.465 0H8.53516C3.82031 0 0 3.82031 0 8.53516V290.133C0 294.848 3.82031 298.668 8.53516 298.668H153.602V503.465C153.602 508.18 157.422 512 162.133 512H503.465C508.18 512 512 508.18 512 503.465V8.53516C512 3.82031 508.18 0 503.465 0V0ZM494.934 494.934H170.668V290.133C170.668 285.422 166.848 281.602 162.133 281.602H17.0664V17.0664H494.934V494.934Z" fill="#7CC246"/>
<path d="M42.668 264.535H162.133C166.848 264.535 170.668 260.711 170.668 256V204.801H187.734V256C187.734 260.711 191.555 264.535 196.266 264.535H307.199V281.602H196.266C191.555 281.602 187.734 285.422 187.734 290.133V469.332C187.734 474.047 191.555 477.867 196.266 477.867H323.574C323.898 477.953 324.23 478.02 324.566 478.066H324.602L375.273 477.867H469.332C474.047 477.867 477.867 474.047 477.867 469.332V290.133C477.867 285.422 474.047 281.602 469.332 281.602H435.199V264.535H469.332C474.047 264.535 477.867 260.711 477.867 256V42.668C477.867 37.9531 474.047 34.1328 469.332 34.1328H196.266C191.555 34.1328 187.734 37.9531 187.734 42.668V76.8008H170.668V42.668C170.668 37.9531 166.848 34.1328 162.133 34.1328H42.668C37.9531 34.1328 34.1328 37.9531 34.1328 42.668V256C34.1328 260.711 37.9531 264.535 42.668 264.535V264.535ZM204.801 332.801H238.934V426.668H204.801V332.801ZM332.543 349.832L417.879 349.492L418.195 417.965L375.566 418.133L332.859 418.305L332.543 349.832ZM384.172 435.168L418.277 435.035L418.391 460.629L384.266 460.766L384.172 435.168ZM332.945 435.367L367.105 435.234L367.199 460.801H333.055L332.945 435.367ZM298.668 85.332H315.734V119.465H298.668V85.332ZM332.801 85.332H384V110.934H332.801V85.332ZM401.066 85.332H418.133V119.465H401.066V85.332ZM426.668 51.1992V68.2656H290.133V51.1992H426.668ZM153.602 51.1992V85.332C153.602 90.0469 157.422 93.8672 162.133 93.8672H192.164L257.871 175.996C260.812 179.676 266.184 180.277 269.867 177.332C273.547 174.391 274.145 169.02 271.203 165.336L204.801 82.3359V51.1992H273.066V76.8008C273.066 81.5117 276.887 85.332 281.602 85.332V128C281.602 132.711 285.422 136.535 290.133 136.535H324.266C328.98 136.535 332.801 132.711 332.801 128H384C384 132.711 387.82 136.535 392.535 136.535H426.668C431.379 136.535 435.199 132.711 435.199 128V85.332C439.914 85.332 443.734 81.5117 443.734 76.8008V51.1992H460.801V247.465H429.355L346.227 189.273C342.363 186.652 337.113 187.617 334.438 191.441C331.762 195.266 332.656 200.531 336.441 203.258L418.133 260.441V290.133C418.133 294.848 421.953 298.668 426.668 298.668H460.801V460.801H435.461L435.301 426.598C435.301 426.539 435.332 426.492 435.332 426.434C435.332 426.375 435.301 426.328 435.301 426.27L434.898 340.887C434.875 336.191 431.062 332.398 426.367 332.395H426.332L323.934 332.801C321.668 332.809 319.5 333.719 317.906 335.324C316.312 336.934 315.422 339.109 315.434 341.375L315.988 460.801H204.801V443.734H247.465C252.18 443.734 256 439.914 256 435.199V324.266C256 319.555 252.18 315.734 247.465 315.734H204.801V298.668H315.734C320.445 298.668 324.266 294.848 324.266 290.133V256C324.266 251.289 320.445 247.465 315.734 247.465H204.801V196.266C204.801 191.555 200.98 187.734 196.266 187.734H162.133C157.422 187.734 153.602 191.555 153.602 196.266V247.465H51.1992V230.398H93.8672C98.5781 230.398 102.398 226.578 102.398 221.867V76.8008C102.398 72.0859 98.5781 68.2656 93.8672 68.2656H51.1992V51.1992H153.602ZM51.1992 85.332H85.332V213.332H51.1992V85.332Z" fill="#7CC246"/>
</g>
<defs>
<clipPath id="clip0">
<rect width="512" height="512" fill="white"/>
</clipPath>
</defs>
</svg>
