<svg width="512" height="512" viewBox="0 0 512 512" fill="none" xmlns="http://www.w3.org/2000/svg">
<path d="M17.0664 332.801H187.734C197.156 332.789 204.789 325.156 204.801 315.734V196.266C204.789 186.844 197.156 179.211 187.734 179.199H17.0664C7.64453 179.211 0.0117188 186.844 0 196.266V315.734C0.0117188 325.156 7.64453 332.789 17.0664 332.801V332.801ZM17.0664 196.266H187.734L187.742 315.734H17.0664V196.266Z" fill="#7CC246"/>
<path d="M17.0664 512H85.332C94.7539 511.988 102.391 504.355 102.398 494.934V375.465C102.391 366.047 94.7539 358.41 85.332 358.398H17.0664C7.64453 358.41 0.0117188 366.047 0 375.465V494.934C0.0117188 504.355 7.64453 511.988 17.0664 512ZM17.0664 375.465H85.332L85.3438 494.934H17.0664V375.465Z" fill="#7CC246"/>
<path d="M494.934 0H17.0664C7.64453 0.0117188 0.0117188 7.64453 0 17.0664V136.535C0.0117188 145.953 7.64453 153.59 17.0664 153.602H252.031C256.844 161.781 260.973 170.344 264.383 179.199H247.465C238.047 179.211 230.41 186.844 230.398 196.266V315.734C230.41 325.156 238.047 332.789 247.465 332.801H263.891C263.773 336.656 263.547 340.531 263.59 344.34C263.648 348.855 263.867 353.586 264.16 358.398H145.066C135.645 358.41 128.012 366.047 128 375.465V494.934C128.012 504.355 135.645 511.988 145.066 512H494.934C504.355 511.988 511.988 504.355 512 494.934V17.0664C511.988 7.64453 504.355 0.0117188 494.934 0V0ZM17.0664 17.0664H159.938C159.391 29.0234 159.777 41.0039 161.102 52.8984C165.824 77.3984 184.949 89.7695 201.824 100.688L204.566 102.461C218.488 111.652 230.715 123.18 240.711 136.535H17.0664V17.0664ZM247.465 196.266H269.855C273.754 210.504 275.867 225.172 276.141 239.93C275.895 253.113 274.078 266.219 270.734 278.973C269.465 284.727 268.191 290.527 267.141 296.504C266.031 302.754 265.305 309.223 264.758 315.734H247.465V196.266ZM145.066 375.465H265.859C270.406 418.965 286.988 460.336 313.746 494.934H145.066V375.465ZM494.934 494.934H336.383C304.324 459.312 285.113 413.977 281.824 366.164C281.133 358.512 280.742 351.094 280.66 344.121C280.574 337.754 280.75 331.254 281.172 324.676C281.566 316.223 282.496 307.805 283.945 299.469C284.965 293.73 286.188 288.16 287.406 282.637C291.051 268.594 293 254.168 293.215 239.66C292.906 221.18 289.984 202.836 284.535 185.172C279.676 169.508 272.848 154.527 264.207 140.586C251.52 119.602 234.332 101.695 213.883 88.1602L211.09 86.3516C195.059 75.9766 181.199 67.0195 177.891 49.9023C176.887 38.9883 176.562 28.0195 176.918 17.0664H494.934V494.934Z" fill="#7CC246"/>
<path d="M195 48.0391C197.559 56.9062 206.301 62.9297 220.359 72.0156L223.242 73.8867C245.746 88.7461 264.672 108.422 278.641 131.492C288.098 146.746 295.57 163.141 300.887 180.285C302.301 184.781 307.09 187.277 311.586 185.867C316.082 184.453 318.582 179.66 317.168 175.164C311.426 156.656 303.352 138.953 293.145 122.48C277.856 97.2852 257.16 75.8047 232.555 59.5859L229.633 57.6914C222.981 53.9727 216.91 49.3008 211.613 43.8242L211.481 42.1016C211.168 37.3945 207.102 33.8359 202.398 34.1484C197.695 34.4648 194.137 38.5312 194.449 43.2344C194.535 44.457 194.617 45.5664 194.703 46.5C194.758 47.0195 194.856 47.5352 195 48.0391V48.0391Z" fill="#7CC246"/>
<path d="M310.266 239.359C310.07 255.379 307.953 271.316 303.957 286.832C302.824 291.961 301.692 297.121 300.758 302.426C299.406 310.188 298.551 318.023 298.192 325.895C297.809 331.891 297.649 337.961 297.723 343.918C297.801 350.449 298.168 357.363 298.817 364.523C301.633 404.691 316.426 443.09 341.281 474.77C343.192 477.223 346.285 478.441 349.356 477.957C352.426 477.469 354.988 475.352 356.043 472.43C357.102 469.504 356.484 466.238 354.434 463.902C331.91 434.785 318.473 399.668 315.809 362.953C315.211 356.273 314.871 349.801 314.793 343.707C314.715 338.176 314.863 332.562 315.234 326.855C315.555 319.66 316.332 312.496 317.559 305.398C318.457 300.34 319.551 295.402 320.742 289.969C324.992 273.336 327.203 256.246 327.332 239.078C327.258 234.422 323.457 230.684 318.801 230.688H318.66C316.395 230.723 314.238 231.656 312.668 233.285C311.094 234.91 310.231 237.098 310.266 239.359V239.359Z" fill="#7CC246"/>
</svg>
