<svg width="512" height="512" viewBox="0 0 512 512" fill="none" xmlns="http://www.w3.org/2000/svg">
<g clip-path="url(#clip0)">
<path d="M479.5 454.565H450.031V204.566H471.321C480.97 204.566 488.821 196.396 488.821 186.354V62.5202C488.821 52.479 480.97 44.3088 471.321 44.3088H450.031V18.2114C450.031 8.17015 442.18 0 432.531 0H79.469C69.82 0 61.969 8.17015 61.969 18.2114V44.3088H40.679C31.03 44.3088 23.179 52.479 23.179 62.5202V186.354C23.179 196.396 31.03 204.566 40.679 204.566H61.97V257.276C61.97 261.586 65.328 265.081 69.47 265.081C73.612 265.081 76.97 261.586 76.97 257.276V204.566H435.032V337.535H407.907C403.764 337.535 400.407 341.029 400.407 345.34C400.407 349.65 403.764 353.145 407.907 353.145H435.032V406.892H344.975V353.145H374.991C379.134 353.145 382.491 349.65 382.491 345.34C382.491 341.029 379.134 337.535 374.991 337.535H344.975V305.564H356.896C360.964 305.564 364.789 303.495 367.126 300.031C369.464 296.567 370.034 292.121 368.652 288.137L353.457 244.352C350.961 237.159 344.347 232.326 336.997 232.326H175.003C167.654 232.326 161.04 237.158 158.544 244.352L143.349 288.137C141.967 292.12 142.537 296.566 144.874 300.03C147.212 303.495 151.037 305.564 155.105 305.564H167.026V337.535H76.969V291.289C76.969 286.979 73.611 283.485 69.469 283.485C65.327 283.485 61.969 286.979 61.969 291.289V454.564H32.5C14.58 454.564 0 469.737 0 488.386V498.992C0 506.165 5.607 512 12.5 512H499.5C506.393 512 512 506.165 512 498.992V488.387C512 469.738 497.421 454.565 479.5 454.565ZM38.179 186.354V62.5202C38.179 61.0862 39.301 59.9186 40.679 59.9186H372.115C376.258 59.9186 379.615 56.4241 379.615 52.1137C379.615 47.8033 376.258 44.3088 372.115 44.3088H76.969V18.2114C76.969 16.7774 78.091 15.6098 79.469 15.6098H432.531C433.91 15.6098 435.031 16.7774 435.031 18.2114V44.3088H404.801C400.658 44.3088 397.301 47.8033 397.301 52.1137C397.301 56.4241 400.658 59.9186 404.801 59.9186H471.321C472.7 59.9186 473.821 61.0862 473.821 62.5202V186.354C473.821 187.788 472.7 188.956 471.321 188.956H40.679C39.3 188.956 38.179 187.79 38.179 186.354V186.354ZM435.031 422.503V454.565H344.974V422.503H435.031ZM329.975 454.565H263.5V305.564H329.975V454.565ZM278.304 247.937L292.887 289.955H219.114L233.696 247.937H278.304ZM339.349 249.654L353.335 289.954H308.835L294.252 247.936H336.997C338.047 247.937 338.992 248.627 339.349 249.654V249.654ZM172.652 249.654C173.008 248.627 173.953 247.936 175.003 247.936H217.747L203.165 289.954H158.666L172.652 249.654ZM248.5 305.564V454.565H182.026V305.564H248.5ZM167.026 353.146V406.893H76.969V353.146H167.026ZM76.969 422.503H167.026V454.565H76.969V422.503ZM497 496.39H15V488.387C15 478.345 22.851 470.175 32.5 470.175H479.5C489.149 470.175 497 478.345 497 488.387V496.39Z" fill="#7CC246"/>
<path d="M231.681 81.307C227.539 81.307 224.181 84.665 224.181 88.807V120.679H182.754V88.807C182.754 84.665 179.396 81.307 175.254 81.307C171.112 81.307 167.754 84.665 167.754 88.807V170.348C167.754 174.49 171.112 177.848 175.254 177.848C179.396 177.848 182.754 174.49 182.754 170.348V135.679H224.181V170.348C224.181 174.49 227.539 177.848 231.681 177.848C235.823 177.848 239.181 174.49 239.181 170.348V88.807C239.181 84.665 235.823 81.307 231.681 81.307V81.307Z" fill="#7CC246"/>
<path d="M128.935 123.183C118.481 119.327 108.78 115.117 106.288 114.022C103.767 112.163 102.544 109.201 103.004 105.997C103.587 101.935 106.717 98.672 111.378 97.268C124.364 93.356 136.116 102.8 136.304 102.955C139.474 105.593 144.185 105.176 146.842 102.015C149.507 98.844 149.097 94.113 145.927 91.448C145.203 90.839 127.946 76.612 107.052 82.906C96.81 85.991 89.57 94.022 88.156 103.865C86.839 113.036 90.811 121.856 98.521 126.883C98.853 127.099 99.2 127.288 99.562 127.449C100.031 127.659 111.181 132.621 123.744 137.256C132.645 140.539 137.168 145.678 136.154 151.357C135.146 157.005 128.55 162.847 119.259 162.847C110.407 162.847 101.862 159.249 96.402 153.223C93.621 150.154 88.878 149.919 85.808 152.702C82.739 155.483 82.505 160.227 85.287 163.296C93.544 172.407 106.244 177.847 119.26 177.847C134.882 177.847 148.493 167.592 150.921 153.993C152.759 143.697 147.948 130.196 128.935 123.183V123.183Z" fill="#7CC246"/>
<path d="M397.694 81.307H374.99C370.903 81.307 367.49 84.72 367.49 88.807V170.348C367.49 174.49 370.847 177.848 374.99 177.848C379.133 177.848 382.49 174.49 382.49 170.348V142.388C387.641 142.36 394.221 142.329 397.694 142.329C414.766 142.329 428.656 128.642 428.656 111.818C428.656 94.994 414.767 81.307 397.694 81.307V81.307ZM397.694 127.328C394.237 127.328 387.746 127.359 382.606 127.387C382.578 122.097 382.546 115.348 382.546 111.818C382.546 108.829 382.527 101.816 382.512 96.307H397.694C406.346 96.307 413.656 103.41 413.656 111.818C413.656 120.226 406.347 127.328 397.694 127.328Z" fill="#7CC246"/>
<path d="M302.761 81.307C276.145 81.307 254.49 102.961 254.49 129.577C254.49 156.194 276.144 177.848 302.761 177.848C329.377 177.848 351.031 156.194 351.031 129.577C351.03 102.96 329.377 81.307 302.761 81.307V81.307ZM302.761 162.847C284.415 162.847 269.49 147.922 269.49 129.576C269.49 111.231 284.415 96.306 302.761 96.306C321.106 96.306 336.031 111.231 336.031 129.576C336.03 147.922 321.105 162.847 302.761 162.847V162.847Z" fill="#7CC246"/>
</g>
<defs>
<clipPath id="clip0">
<rect width="512" height="512" fill="white"/>
</clipPath>
</defs>
</svg>
